Coordinates
version=1
nRows=10
nColumns=40
inDegrees=yes

Units are S.I. units (second, meters, Newtons, ...)
If the header above contains a line with 'inDegrees', this indicates whether rotational values are in degrees (yes) or radians (no).

endheader
time	pelvis_tilt	pelvis_list	pelvis_rotation	pelvis_tx	pelvis_ty	pelvis_tz	hip_flexion_r	hip_adduction_r	hip_rotation_r	knee_angle_r	knee_angle_r_beta	ankle_angle_r	subtalar_angle_r	mtp_angle_r	hip_flexion_l	hip_adduction_l	hip_rotation_l	knee_angle_l	knee_angle_l_beta	ankle_angle_l	subtalar_angle_l	mtp_angle_l	lumbar_extension	lumbar_bending	lumbar_rotation	arm_flex_r	arm_add_r	arm_rot_r	elbow_flex_r	pro_sup_r	wrist_flex_r	wrist_dev_r	arm_flex_l	arm_add_l	arm_rot_l	elbow_flex_l	pro_sup_l	wrist_flex_l	wrist_dev_l
      5.32500000	    -21.91110845	      4.58502548	      4.57691133	     -0.47102827	      0.74338101	     -0.72124147	     75.98998469	     -4.79870877	     -6.23636452	     83.54011096	      1.45804999	     17.89271165	      0.00000000	      0.00000000	     89.67442006	     -6.14644224	    -14.98228850	     53.25260130	      0.92943323	    -17.91167641	      0.00000000	      0.00000000	     -6.67867653	     -2.16912913	     -4.30228446	     89.96914429	     -3.19821776	      8.83673627	     54.52264810	     74.01556778	      0.00000000	      0.00000000	     89.95519164	     -8.55103934	      7.21368855	     50.21211102	     81.40628556	      0.00000000	      0.00000000
      5.33000000	    -21.81692208	      4.54032591	      4.56602663	     -0.47085828	      0.74435570	     -0.72123737	     75.80390687	     -4.80658651	     -6.33461896	     83.40695997	      1.45572607	     17.62351449	      0.00000000	      0.00000000	     89.54372546	     -6.18082913	    -15.04026498	     53.20656518	      0.92862975	    -17.94640532	      0.00000000	      0.00000000	     -6.76427547	     -2.12459492	     -4.28188653	     89.96913391	     -3.23887870	      8.89287969	     54.47659780	     74.06564061	      0.00000000	      0.00000000	     89.95522203	     -8.55591902	      7.29376593	     50.15530875	     81.39934364	      0.00000000	      0.00000000
      5.33500000	    -21.82664834	      4.54366674	      4.57050924	     -0.47082666	      0.74505685	     -0.72129470	     75.77326798	     -4.81842895	     -6.33014734	     83.37578753	      1.45518201	     17.61282825	      0.00000000	      0.00000000	     89.54694328	     -6.17244926	    -15.04634764	     53.21442635	      0.92876695	    -17.94285428	      0.00000000	      0.00000000	     -6.73216915	     -2.12964301	     -4.28747741	     89.96908447	     -3.23716875	      8.88452576	     54.50575700	     74.06812798	      0.00000000	      0.00000000	     89.95497663	     -8.56428080	      7.28476721	     50.17800562	     81.39818248	      0.00000000	      0.00000000
      5.34000000	    -21.82598312	      4.59463140	      4.61356997	     -0.47076815	      0.74597720	     -0.72139448	     75.62782530	     -4.87683378	     -6.28805053	     83.09565596	      1.45029279	     17.51330652	      0.00000000	      0.00000000	     89.51911849	     -6.11667288	    -15.07541722	     53.25944069	      0.92955260	    -17.93054826	      0.00000000	      0.00000000	     -6.71441979	     -2.18316832	     -4.35368622	     89.96897128	     -3.22740807	      8.91520032	     54.46203442	     74.08526013	      0.00000000	      0.00000000	     89.95506861	     -8.57851047	      7.30993971	     50.09308913	     81.39311501	      0.00000000	      0.00000000
      5.34500000	    -21.80701181	      4.59752177	      4.64456613	     -0.47063230	      0.74689800	     -0.72143745	     75.49597625	     -4.89994350	     -6.28432209	     82.92469907	      1.44730903	     17.41929433	      0.00000000	      0.00000000	     89.46592636	     -6.10659279	    -15.11782947	     53.26441010	      0.92963933	    -17.92220323	      0.00000000	      0.00000000	     -6.71453898	     -2.20272510	     -4.37828517	     89.96896614	     -3.27397642	      8.92720855	     54.42603042	     74.10855738	      0.00000000	      0.00000000	     89.95496473	     -8.58877627	      7.35566332	     50.04028509	     81.39017063	      0.00000000	      0.00000000
      5.35000000	    -21.82074722	      4.60307193	      4.64287897	     -0.47051726	      0.74765548	     -0.72150763	     75.45946503	     -4.91181531	     -6.28418630	     82.89506790	      1.44679187	     17.40769846	      0.00000000	      0.00000000	     89.45164914	     -6.09873506	    -15.11816924	     53.27320585	      0.92979285	    -17.92654467	      0.00000000	      0.00000000	     -6.67496800	     -2.20664812	     -4.37714249	     89.96883197	     -3.27829328	      8.92069051	     54.44280335	     74.11027877	      0.00000000	      0.00000000	     89.95463359	     -8.59825705	      7.34943447	     50.05992216	     81.38931052	      0.00000000	      0.00000000
      5.35500000	    -21.77483519	      4.64794499	      4.65278910	     -0.47042211	      0.74872581	     -0.72150384	     75.24932501	     -4.95113610	     -6.27330330	     82.57955951	      1.44128521	     17.27650208	      0.00000000	      0.00000000	     89.37156492	     -6.06860283	    -15.11030162	     53.29635406	      0.93019686	    -17.99205429	      0.00000000	      0.00000000	     -6.70605667	     -2.27836870	     -4.43465625	     89.96882588	     -3.28908712	      8.96556778	     54.38990732	     74.13307413	      0.00000000	      0.00000000	     89.95464852	     -8.63773174	      7.42037407	     49.92924268	     81.39290031	      0.00000000	      0.00000000
      5.36000000	    -21.74385757	      4.67111147	      4.67894887	     -0.47033288	      0.74973349	     -0.72160162	     75.10301581	     -4.98803506	     -6.26603534	     82.39632135	      1.43808710	     17.18496580	      0.00000000	      0.00000000	     89.30352011	     -6.03612895	    -15.12699814	     53.31555238	      0.93053193	    -18.03970395	      0.00000000	      0.00000000	     -6.71258367	     -2.29479154	     -4.44622551	     89.96883063	     -3.33426518	      8.99307394	     54.32985992	     74.15597375	      0.00000000	      0.00000000	     89.95470898	     -8.62503040	      7.48412210	     49.88742153	     81.39487855	      0.00000000	      0.00000000
      5.36500000	    -21.75784203	      4.67440608	      4.68591588	     -0.47023016	      0.75056940	     -0.72163769	     75.06490921	     -5.00338655	     -6.26847770	     82.35968780	      1.43744772	     17.17017073	      0.00000000	      0.00000000	     89.29280838	     -6.03244690	    -15.12717312	     53.32465073	      0.93069073	    -18.04248605	      0.00000000	      0.00000000	     -6.67717259	     -2.30700287	     -4.44337545	     89.96877513	     -3.33760575	      8.98711060	     54.34906942	     74.15911846	      0.00000000	      0.00000000	     89.95446683	     -8.63571921	      7.48041408	     49.90249577	     81.39455758	      0.00000000	      0.00000000
      5.37000000	    -21.73366949	      4.72285845	      4.71315401	     -0.47015219	      0.75166772	     -0.72170752	     74.85961470	     -5.05988495	     -6.26127580	     82.03001444	      1.43169384	     17.04024593	      0.00000000	      0.00000000	     89.23842311	     -5.97775672	    -15.11484899	     53.36229501	      0.93134774	    -18.07237516	      0.00000000	      0.00000000	     -6.68505229	     -2.37271869	     -4.49833343	     89.96870892	     -3.37259211	      9.02560287	     54.27395353	     74.18171999	      0.00000000	      0.00000000	     89.95455308	     -8.66917484	      7.54875778	     49.81000711	     81.39735301	      0.00000000	      0.00000000
